<svg xmlns="http://www.w3.org/2000/svg" width="1200" height="240" viewBox="0 0 1200 240" role="img" aria-labelledby="title desc">
  <title id="title">Contribution activity</title>
  <desc id="desc">Daily contribution counts for the last year from GitHub&#x27;s GraphQL API.</desc>
  <rect x="1" y="1" width="1198" height="238" rx="7" fill="#050505" stroke="#4c525b"/>
  <path d="M14 50V14h36M1150 14h36v36M14 190v36h36M1150 226h36v-36" fill="none" stroke="#8b0000" stroke-width="2"/>
  <text x="28" y="34" fill="#dc143c" font-family="Consolas,monospace" font-size="12" letter-spacing="3">CONTRIBUTION ACTIVITY</text>
  <text x="30" y="93" fill="#7d8590" text-anchor="start" font-family="Consolas,monospace" font-size="8" font-weight="400" letter-spacing="0">SUN</text><text x="30" y="147" fill="#7d8590" text-anchor="start" font-family="Consolas,monospace" font-size="8" font-weight="400" letter-spacing="0">WED</text><text x="30" y="201" fill="#7d8590" text-anchor="start" font-family="Consolas,monospace" font-size="8" font-weight="400" letter-spacing="0">SAT</text><text x="1140" y="35" fill="#c0c0c0" text-anchor="end" font-family="Consolas,monospace" font-size="11" font-weight="400" letter-spacing="1">21 CONTRIBUTIONS / 365D</text><text x="1140" y="222" fill="#7d8590" text-anchor="end" font-family="Consolas,monospace" font-size="9" font-weight="400" letter-spacing="0">LIVE GITHUB DATA · UPDATED 2026-09-25 UTC</text><rect x="58" y="172" width="14" height="14" rx="2" fill="#15171a"><title>0 contributions on 2025-09-26</title></rect><rect x="58" y="190" width="14" height="14" rx="2" fill="#15171a"><title>0 contributions on 2025-09-27</title></rect><rect x="76" y="82" width="14" height="14" rx="2" fill="#15171a"><title>0 contributions on 2025-09-28</title></rect><rect x="76" y="100" width="14" height="14" rx="2" fill="#15171a"><title>0 contributions on 2025-09-29</title></rect><rect x="76" y="118" width="14" height="14" rx="2" fill="#15171a"><title>0 contributions on 2025-09-30</title></rect><rect x="76" y="136" width="14" height="14" rx="2" fill="#15171a"><title>0 contributions on 2025-10-01</title></rect><rect x="76" y="154" width="14" height="14" rx="2" fill="#15171a"><title>0 contributions on 2025-10-02</title></rect><rect x="76" y="172" width="14" height="14" rx="2" fill="#15171a"><title>0 contributions on 2025-10-03</title></rect><rect x="76" y="190" width="14" height="14" rx="2" fill="#15171a"><title>0 contributions on 2025-10-04</title></rect><rect x="94" y="82" width="14" height="14" rx="2" fill="#15171a"><title>0 contributions on 2025-10-05</title></rect><rect x="94" y="100" width="14" height="14" rx="2" fill="#15171a"><title>0 contributions on 2025-10-06</title></rect><rect x="94" y="118" width="14" height="14" rx="2" fill="#15171a"><title>0 contributions on 2025-10-07</title></rect><rect x="94" y="136" width="14" height="14" rx="2" fill="#15171a"><title>0 contributions on 2025-10-08</title></rect><rect x="94" y="154" width="14" height="14" rx="2" fill="#15171a"><title>0 contributions on 2025-10-09</title></rect><rect x="94" y="172" width="14" height="14" rx="2" fill="#15171a"><title>0 contributions on 2025-10-10</title></rect><rect x="94" y="190" width="14" height="14" rx="2" fill="#15171a"><title>0 contributions on 2025-10-11</title></rect><rect x="112" y="82" width="14" height="14" rx="2" fill="#15171a"><title>0 contributions on 2025-10-12</title></rect><rect x="112" y="100" width="14" height="14" rx="2" fill="#15171a"><title>0 contributions on 2025-10-13</title></rect><rect x="112" y="118" width="14" height="14" rx="2" fill="#15171a"><title>0 contributions on 2025-10-14</title></rect><rect x="112" y="136" width="14" height="14" rx="2" fill="#15171a"><title>0 contributions on 2025-10-15</title></rect><rect x="112" y="154" width="14" height="14" rx="2" fill="#15171a"><title>0 contributions on 2025-10-16</title></rect><rect x="112" y="172" width="14" height="14" rx="2" fill="#15171a"><title>0 contributions on 2025-10-17</title></rect><rect x="112" y="190" width="14" height="14" rx="2" fill="#15171a"><title>0 contributions on 2025-10-18</title></rect><rect x="130" y="82" width="14" height="14" rx="2" fill="#15171a"><title>0 contributions on 2025-10-19</title></rect><rect x="130" y="100" width="14" height="14" rx="2" fill="#15171a"><title>0 contributions on 2025-10-20</title></rect><rect x="130" y="118" width="14" height="14" rx="2" fill="#15171a"><title>0 contributions on 2025-10-21</title></rect><rect x="130" y="136" width="14" height="14" rx="2" fill="#15171a"><title>0 contributions on 2025-10-22</title></rect><rect x="130" y="154" width="14" height="14" rx="2" fill="#15171a"><title>0 contributions on 2025-10-23</title></rect><rect x="130" y="172" width="14" height="14" rx="2" fill="#15171a"><title>0 contributions on 2025-10-24</title></rect><rect x="130" y="190" width="14" height="14" rx="2" fill="#15171a"><title>0 contributions on 2025-10-25</title></rect><rect x="148" y="82" width="14" height="14" rx="2" fill="#15171a"><title>0 contributions on 2025-10-26</title></rect><rect x="148" y="100" width="14" height="14" rx="2" fill="#15171a"><title>0 contributions on 2025-10-27</title></rect><rect x="148" y="118" width="14" height="14" rx="2" fill="#15171a"><title>0 contributions on 2025-10-28</title></rect><rect x="148" y="136" width="14" height="14" rx="2" fill="#15171a"><title>0 contributions on 2025-10-29</title></rect><rect x="148" y="154" width="14" height="14" rx="2" fill="#15171a"><title>0 contributions on 2025-10-30</title></rect><rect x="148" y="172" width="14" height="14" rx="2" fill="#15171a"><title>0 contributions on 2025-10-31</title></rect><rect x="148" y="190" width="14" height="14" rx="2" fill="#15171a"><title>0 contributions on 2025-11-01</title></rect><rect x="166" y="82" width="14" height="14" rx="2" fill="#15171a"><title>0 contributions on 2025-11-02</title></rect><rect x="166" y="100" width="14" height="14" rx="2" fill="#15171a"><title>0 contributions on 2025-11-03</title></rect><rect x="166" y="118" width="14" height="14" rx="2" fill="#15171a"><title>0 contributions on 2025-11-04</title></rect><rect x="166" y="136" width="14" height="14" rx="2" fill="#15171a"><title>0 contributions on 2025-11-05</title></rect><rect x="166" y="154" width="14" height="14" rx="2" fill="#15171a"><title>0 contributions on 2025-11-06</title></rect><rect x="166" y="172" width="14" height="14" rx="2" fill="#15171a"><title>0 contributions on 2025-11-07</title></rect><rect x="166" y="190" width="14" height="14" rx="2" fill="#15171a"><title>0 contributions on 2025-11-08</title></rect><rect x="184" y="82" width="14" height="14" rx="2" fill="#15171a"><title>0 contributions on 2025-11-09</title></rect><rect x="184" y="100" width="14" height="14" rx="2" fill="#15171a"><title>0 contributions on 2025-11-10</title></rect><rect x="184" y="118" width="14" height="14" rx="2" fill="#15171a"><title>0 contributions on 2025-11-11</title></rect><rect x="184" y="136" width="14" height="14" rx="2" fill="#15171a"><title>0 contributions on 2025-11-12</title></rect><rect x="184" y="154" width="14" height="14" rx="2" fill="#15171a"><title>0 contributions on 2025-11-13</title></rect><rect x="184" y="172" width="14" height="14" rx="2" fill="#15171a"><title>0 contributions on 2025-11-14</title></rect><rect x="184" y="190" width="14" height="14" rx="2" fill="#15171a"><title>0 contributions on 2025-11-15</title></rect><rect x="202" y="82" width="14" height="14" rx="2" fill="#15171a"><title>0 contributions on 2025-11-16</title></rect><rect x="202" y="100" width="14" height="14" rx="2" fill="#15171a"><title>0 contributions on 2025-11-17</title></rect><rect x="202" y="118" width="14" height="14" rx="2" fill="#15171a"><title>0 contributions on 2025-11-18</title></rect><rect x="202" y="136" width="14" height="14" rx="2" fill="#15171a"><title>0 contributions on 2025-11-19</title></rect><rect x="202" y="154" width="14" height="14" rx="2" fill="#15171a"><title>0 contributions on 2025-11-20</title></rect><rect x="202" y="172" width="14" height="14" rx="2" fill="#15171a"><title>0 contributions on 2025-11-21</title></rect><rect x="202" y="190" width="14" height="14" rx="2" fill="#15171a"><title>0 contributions on 2025-11-22</title></rect><rect x="220" y="82" width="14" height="14" rx="2" fill="#15171a"><title>0 contributions on 2025-11-23</title></rect><rect x="220" y="100" width="14" height="14" rx="2" fill="#15171a"><title>0 contributions on 2025-11-24</title></rect><rect x="220" y="118" width="14" height="14" rx="2" fill="#15171a"><title>0 contributions on 2025-11-25</title></rect><rect x="220" y="136" width="14" height="14" rx="2" fill="#15171a"><title>0 contributions on 2025-11-26</title></rect><rect x="220" y="154" width="14" height="14" rx="2" fill="#15171a"><title>0 contributions on 2025-11-27</title></rect><rect x="220" y="172" width="14" height="14" rx="2" fill="#15171a"><title>0 contributions on 2025-11-28</title></rect><rect x="220" y="190" width="14" height="14" rx="2" fill="#15171a"><title>0 contributions on 2025-11-29</title></rect><rect x="238" y="82" width="14" height="14" rx="2" fill="#15171a"><title>0 contributions on 2025-11-30</title></rect><rect x="238" y="100" width="14" height="14" rx="2" fill="#15171a"><title>0 contributions on 2025-12-01</title></rect><rect x="238" y="118" width="14" height="14" rx="2" fill="#15171a"><title>0 contributions on 2025-12-02</title></rect><rect x="238" y="136" width="14" height="14" rx="2" fill="#15171a"><title>0 contributions on 2025-12-03</title></rect><rect x="238" y="154" width="14" height="14" rx="2" fill="#15171a"><title>0 contributions on 2025-12-04</title></rect><rect x="238" y="172" width="14" height="14" rx="2" fill="#15171a"><title>0 contributions on 2025-12-05</title></rect><rect x="238" y="190" width="14" height="14" rx="2" fill="#15171a"><title>0 contributions on 2025-12-06</title></rect><rect x="256" y="82" width="14" height="14" rx="2" fill="#15171a"><title>0 contributions on 2025-12-07</title></rect><rect x="256" y="100" width="14" height="14" rx="2" fill="#15171a"><title>0 contributions on 2025-12-08</title></rect><rect x="256" y="118" width="14" height="14" rx="2" fill="#15171a"><title>0 contributions on 2025-12-09</title></rect><rect x="256" y="136" width="14" height="14" rx="2" fill="#15171a"><title>0 contributions on 2025-12-10</title></rect><rect x="256" y="154" width="14" height="14" rx="2" fill="#15171a"><title>0 contributions on 2025-12-11</title></rect><rect x="256" y="172" width="14" height="14" rx="2" fill="#15171a"><title>0 contributions on 2025-12-12</title></rect><rect x="256" y="190" width="14" height="14" rx="2" fill="#15171a"><title>0 contributions on 2025-12-13</title></rect><rect x="274" y="82" width="14" height="14" rx="2" fill="#15171a"><title>0 contributions on 2025-12-14</title></rect><rect x="274" y="100" width="14" height="14" rx="2" fill="#15171a"><title>0 contributions on 2025-12-15</title></rect><rect x="274" y="118" width="14" height="14" rx="2" fill="#15171a"><title>0 contributions on 2025-12-16</title></rect><rect x="274" y="136" width="14" height="14" rx="2" fill="#15171a"><title>0 contributions on 2025-12-17</title></rect><rect x="274" y="154" width="14" height="14" rx="2" fill="#15171a"><title>0 contributions on 2025-12-18</title></rect><rect x="274" y="172" width="14" height="14" rx="2" fill="#15171a"><title>0 contributions on 2025-12-19</title></rect><rect x="274" y="190" width="14" height="14" rx="2" fill="#15171a"><title>0 contributions on 2025-12-20</title></rect><rect x="292" y="82" width="14" height="14" rx="2" fill="#15171a"><title>0 contributions on 2025-12-21</title></rect><rect x="292" y="100" width="14" height="14" rx="2" fill="#15171a"><title>0 contributions on 2025-12-22</title></rect><rect x="292" y="118" width="14" height="14" rx="2" fill="#15171a"><title>0 contributions on 2025-12-23</title></rect><rect x="292" y="136" width="14" height="14" rx="2" fill="#15171a"><title>0 contributions on 2025-12-24</title></rect><rect x="292" y="154" width="14" height="14" rx="2" fill="#15171a"><title>0 contributions on 2025-12-25</title></rect><rect x="292" y="172" width="14" height="14" rx="2" fill="#15171a"><title>0 contributions on 2025-12-26</title></rect><rect x="292" y="190" width="14" height="14" rx="2" fill="#15171a"><title>0 contributions on 2025-12-27</title></rect><rect x="310" y="82" width="14" height="14" rx="2" fill="#15171a"><title>0 contributions on 2025-12-28</title></rect><rect x="310" y="100" width="14" height="14" rx="2" fill="#15171a"><title>0 contributions on 2025-12-29</title></rect><rect x="310" y="118" width="14" height="14" rx="2" fill="#15171a"><title>0 contributions on 2025-12-30</title></rect><rect x="310" y="136" width="14" height="14" rx="2" fill="#15171a"><title>0 contributions on 2025-12-31</title></rect><rect x="310" y="154" width="14" height="14" rx="2" fill="#15171a"><title>0 contributions on 2026-01-01</title></rect><rect x="310" y="172" width="14" height="14" rx="2" fill="#15171a"><title>0 contributions on 2026-01-02</title></rect><rect x="310" y="190" width="14" height="14" rx="2" fill="#15171a"><title>0 contributions on 2026-01-03</title></rect><rect x="328" y="82" width="14" height="14" rx="2" fill="#15171a"><title>0 contributions on 2026-01-04</title></rect><rect x="328" y="100" width="14" height="14" rx="2" fill="#15171a"><title>0 contributions on 2026-01-05</title></rect><rect x="328" y="118" width="14" height="14" rx="2" fill="#15171a"><title>0 contributions on 2026-01-06</title></rect><rect x="328" y="136" width="14" height="14" rx="2" fill="#15171a"><title>0 contributions on 2026-01-07</title></rect><rect x="328" y="154" width="14" height="14" rx="2" fill="#15171a"><title>0 contributions on 2026-01-08</title></rect><rect x="328" y="172" width="14" height="14" rx="2" fill="#15171a"><title>0 contributions on 2026-01-09</title></rect><rect x="328" y="190" width="14" height="14" rx="2" fill="#15171a"><title>0 contributions on 2026-01-10</title></rect><rect x="346" y="82" width="14" height="14" rx="2" fill="#15171a"><title>0 contributions on 2026-01-11</title></rect><rect x="346" y="100" width="14" height="14" rx="2" fill="#15171a"><title>0 contributions on 2026-01-12</title></rect><rect x="346" y="118" width="14" height="14" rx="2" fill="#15171a"><title>0 contributions on 2026-01-13</title></rect><rect x="346" y="136" width="14" height="14" rx="2" fill="#15171a"><title>0 contributions on 2026-01-14</title></rect><rect x="346" y="154" width="14" height="14" rx="2" fill="#15171a"><title>0 contributions on 2026-01-15</title></rect><rect x="346" y="172" width="14" height="14" rx="2" fill="#15171a"><title>0 contributions on 2026-01-16</title></rect><rect x="346" y="190" width="14" height="14" rx="2" fill="#15171a"><title>0 contributions on 2026-01-17</title></rect><rect x="364" y="82" width="14" height="14" rx="2" fill="#15171a"><title>0 contributions on 2026-01-18</title></rect><rect x="364" y="100" width="14" height="14" rx="2" fill="#15171a"><title>0 contributions on 2026-01-19</title></rect><rect x="364" y="118" width="14" height="14" rx="2" fill="#15171a"><title>0 contributions on 2026-01-20</title></rect><rect x="364" y="136" width="14" height="14" rx="2" fill="#15171a"><title>0 contributions on 2026-01-21</title></rect><rect x="364" y="154" width="14" height="14" rx="2" fill="#15171a"><title>0 contributions on 2026-01-22</title></rect><rect x="364" y="172" width="14" height="14" rx="2" fill="#15171a"><title>0 contributions on 2026-01-23</title></rect><rect x="364" y="190" width="14" height="14" rx="2" fill="#15171a"><title>0 contributions on 2026-01-24</title></rect><rect x="382" y="82" width="14" height="14" rx="2" fill="#15171a"><title>0 contributions on 2026-01-25</title></rect><rect x="382" y="100" width="14" height="14" rx="2" fill="#15171a"><title>0 contributions on 2026-01-26</title></rect><rect x="382" y="118" width="14" height="14" rx="2" fill="#15171a"><title>0 contributions on 2026-01-27</title></rect><rect x="382" y="136" width="14" height="14" rx="2" fill="#15171a"><title>0 contributions on 2026-01-28</title></rect><rect x="382" y="154" width="14" height="14" rx="2" fill="#15171a"><title>0 contributions on 2026-01-29</title></rect><rect x="382" y="172" width="14" height="14" rx="2" fill="#15171a"><title>0 contributions on 2026-01-30</title></rect><rect x="382" y="190" width="14" height="14" rx="2" fill="#15171a"><title>0 contributions on 2026-01-31</title></rect><rect x="400" y="82" width="14" height="14" rx="2" fill="#15171a"><title>0 contributions on 2026-02-01</title></rect><rect x="400" y="100" width="14" height="14" rx="2" fill="#15171a"><title>0 contributions on 2026-02-02</title></rect><rect x="400" y="118" width="14" height="14" rx="2" fill="#15171a"><title>0 contributions on 2026-02-03</title></rect><rect x="400" y="136" width="14" height="14" rx="2" fill="#3b000b"><title>1 contributions on 2026-02-04</title></rect><rect x="400" y="154" width="14" height="14" rx="2" fill="#15171a"><title>0 contributions on 2026-02-05</title></rect><rect x="400" y="172" width="14" height="14" rx="2" fill="#15171a"><title>0 contributions on 2026-02-06</title></rect><rect x="400" y="190" width="14" height="14" rx="2" fill="#15171a"><title>0 contributions on 2026-02-07</title></rect><rect x="418" y="82" width="14" height="14" rx="2" fill="#15171a"><title>0 contributions on 2026-02-08</title></rect><rect x="418" y="100" width="14" height="14" rx="2" fill="#15171a"><title>0 contributions on 2026-02-09</title></rect><rect x="418" y="118" width="14" height="14" rx="2" fill="#15171a"><title>0 contributions on 2026-02-10</title></rect><rect x="418" y="136" width="14" height="14" rx="2" fill="#15171a"><title>0 contributions on 2026-02-11</title></rect><rect x="418" y="154" width="14" height="14" rx="2" fill="#15171a"><title>0 contributions on 2026-02-12</title></rect><rect x="418" y="172" width="14" height="14" rx="2" fill="#15171a"><title>0 contributions on 2026-02-13</title></rect><rect x="418" y="190" width="14" height="14" rx="2" fill="#15171a"><title>0 contributions on 2026-02-14</title></rect><rect x="436" y="82" width="14" height="14" rx="2" fill="#15171a"><title>0 contributions on 2026-02-15</title></rect><rect x="436" y="100" width="14" height="14" rx="2" fill="#15171a"><title>0 contributions on 2026-02-16</title></rect><rect x="436" y="118" width="14" height="14" rx="2" fill="#15171a"><title>0 contributions on 2026-02-17</title></rect><rect x="436" y="136" width="14" height="14" rx="2" fill="#15171a"><title>0 contributions on 2026-02-18</title></rect><rect x="436" y="154" width="14" height="14" rx="2" fill="#15171a"><title>0 contributions on 2026-02-19</title></rect><rect x="436" y="172" width="14" height="14" rx="2" fill="#15171a"><title>0 contributions on 2026-02-20</title></rect><rect x="436" y="190" width="14" height="14" rx="2" fill="#15171a"><title>0 contributions on 2026-02-21</title></rect><rect x="454" y="82" width="14" height="14" rx="2" fill="#15171a"><title>0 contributions on 2026-02-22</title></rect><rect x="454" y="100" width="14" height="14" rx="2" fill="#15171a"><title>0 contributions on 2026-02-23</title></rect><rect x="454" y="118" width="14" height="14" rx="2" fill="#15171a"><title>0 contributions on 2026-02-24</title></rect><rect x="454" y="136" width="14" height="14" rx="2" fill="#15171a"><title>0 contributions on 2026-02-25</title></rect><rect x="454" y="154" width="14" height="14" rx="2" fill="#15171a"><title>0 contributions on 2026-02-26</title></rect><rect x="454" y="172" width="14" height="14" rx="2" fill="#15171a"><title>0 contributions on 2026-02-27</title></rect><rect x="454" y="190" width="14" height="14" rx="2" fill="#15171a"><title>0 contributions on 2026-02-28</title></rect><rect x="472" y="82" width="14" height="14" rx="2" fill="#15171a"><title>0 contributions on 2026-03-01</title></rect><rect x="472" y="100" width="14" height="14" rx="2" fill="#15171a"><title>0 contributions on 2026-03-02</title></rect><rect x="472" y="118" width="14" height="14" rx="2" fill="#15171a"><title>0 contributions on 2026-03-03</title></rect><rect x="472" y="136" width="14" height="14" rx="2" fill="#15171a"><title>0 contributions on 2026-03-04</title></rect><rect x="472" y="154" width="14" height="14" rx="2" fill="#15171a"><title>0 contributions on 2026-03-05</title></rect><rect x="472" y="172" width="14" height="14" rx="2" fill="#15171a"><title>0 contributions on 2026-03-06</title></rect><rect x="472" y="190" width="14" height="14" rx="2" fill="#15171a"><title>0 contributions on 2026-03-07</title></rect><rect x="490" y="82" width="14" height="14" rx="2" fill="#15171a"><title>0 contributions on 2026-03-08</title></rect><rect x="490" y="100" width="14" height="14" rx="2" fill="#15171a"><title>0 contributions on 2026-03-09</title></rect><rect x="490" y="118" width="14" height="14" rx="2" fill="#15171a"><title>0 contributions on 2026-03-10</title></rect><rect x="490" y="136" width="14" height="14" rx="2" fill="#15171a"><title>0 contributions on 2026-03-11</title></rect><rect x="490" y="154" width="14" height="14" rx="2" fill="#15171a"><title>0 contributions on 2026-03-12</title></rect><rect x="490" y="172" width="14" height="14" rx="2" fill="#15171a"><title>0 contributions on 2026-03-13</title></rect><rect x="490" y="190" width="14" height="14" rx="2" fill="#15171a"><title>0 contributions on 2026-03-14</title></rect><rect x="508" y="82" width="14" height="14" rx="2" fill="#15171a"><title>0 contributions on 2026-03-15</title></rect><rect x="508" y="100" width="14" height="14" rx="2" fill="#15171a"><title>0 contributions on 2026-03-16</title></rect><rect x="508" y="118" width="14" height="14" rx="2" fill="#15171a"><title>0 contributions on 2026-03-17</title></rect><rect x="508" y="136" width="14" height="14" rx="2" fill="#15171a"><title>0 contributions on 2026-03-18</title></rect><rect x="508" y="154" width="14" height="14" rx="2" fill="#15171a"><title>0 contributions on 2026-03-19</title></rect><rect x="508" y="172" width="14" height="14" rx="2" fill="#15171a"><title>0 contributions on 2026-03-20</title></rect><rect x="508" y="190" width="14" height="14" rx="2" fill="#15171a"><title>0 contributions on 2026-03-21</title></rect><rect x="526" y="82" width="14" height="14" rx="2" fill="#15171a"><title>0 contributions on 2026-03-22</title></rect><rect x="526" y="100" width="14" height="14" rx="2" fill="#15171a"><title>0 contributions on 2026-03-23</title></rect><rect x="526" y="118" width="14" height="14" rx="2" fill="#15171a"><title>0 contributions on 2026-03-24</title></rect><rect x="526" y="136" width="14" height="14" rx="2" fill="#15171a"><title>0 contributions on 2026-03-25</title></rect><rect x="526" y="154" width="14" height="14" rx="2" fill="#15171a"><title>0 contributions on 2026-03-26</title></rect><rect x="526" y="172" width="14" height="14" rx="2" fill="#15171a"><title>0 contributions on 2026-03-27</title></rect><rect x="526" y="190" width="14" height="14" rx="2" fill="#15171a"><title>0 contributions on 2026-03-28</title></rect><rect x="544" y="82" width="14" height="14" rx="2" fill="#15171a"><title>0 contributions on 2026-03-29</title></rect><rect x="544" y="100" width="14" height="14" rx="2" fill="#15171a"><title>0 contributions on 2026-03-30</title></rect><rect x="544" y="118" width="14" height="14" rx="2" fill="#15171a"><title>0 contributions on 2026-03-31</title></rect><rect x="544" y="136" width="14" height="14" rx="2" fill="#15171a"><title>0 contributions on 2026-04-01</title></rect><rect x="544" y="154" width="14" height="14" rx="2" fill="#15171a"><title>0 contributions on 2026-04-02</title></rect><rect x="544" y="172" width="14" height="14" rx="2" fill="#15171a"><title>0 contributions on 2026-04-03</title></rect><rect x="544" y="190" width="14" height="14" rx="2" fill="#15171a"><title>0 contributions on 2026-04-04</title></rect><rect x="562" y="82" width="14" height="14" rx="2" fill="#15171a"><title>0 contributions on 2026-04-05</title></rect><rect x="562" y="100" width="14" height="14" rx="2" fill="#15171a"><title>0 contributions on 2026-04-06</title></rect><rect x="562" y="118" width="14" height="14" rx="2" fill="#15171a"><title>0 contributions on 2026-04-07</title></rect><rect x="562" y="136" width="14" height="14" rx="2" fill="#15171a"><title>0 contributions on 2026-04-08</title></rect><rect x="562" y="154" width="14" height="14" rx="2" fill="#15171a"><title>0 contributions on 2026-04-09</title></rect><rect x="562" y="172" width="14" height="14" rx="2" fill="#15171a"><title>0 contributions on 2026-04-10</title></rect><rect x="562" y="190" width="14" height="14" rx="2" fill="#15171a"><title>0 contributions on 2026-04-11</title></rect><rect x="580" y="82" width="14" height="14" rx="2" fill="#15171a"><title>0 contributions on 2026-04-12</title></rect><rect x="580" y="100" width="14" height="14" rx="2" fill="#15171a"><title>0 contributions on 2026-04-13</title></rect><rect x="580" y="118" width="14" height="14" rx="2" fill="#15171a"><title>0 contributions on 2026-04-14</title></rect><rect x="580" y="136" width="14" height="14" rx="2" fill="#15171a"><title>0 contributions on 2026-04-15</title></rect><rect x="580" y="154" width="14" height="14" rx="2" fill="#15171a"><title>0 contributions on 2026-04-16</title></rect><rect x="580" y="172" width="14" height="14" rx="2" fill="#15171a"><title>0 contributions on 2026-04-17</title></rect><rect x="580" y="190" width="14" height="14" rx="2" fill="#15171a"><title>0 contributions on 2026-04-18</title></rect><rect x="598" y="82" width="14" height="14" rx="2" fill="#15171a"><title>0 contributions on 2026-04-19</title></rect><rect x="598" y="100" width="14" height="14" rx="2" fill="#15171a"><title>0 contributions on 2026-04-20</title></rect><rect x="598" y="118" width="14" height="14" rx="2" fill="#15171a"><title>0 contributions on 2026-04-21</title></rect><rect x="598" y="136" width="14" height="14" rx="2" fill="#15171a"><title>0 contributions on 2026-04-22</title></rect><rect x="598" y="154" width="14" height="14" rx="2" fill="#15171a"><title>0 contributions on 2026-04-23</title></rect><rect x="598" y="172" width="14" height="14" rx="2" fill="#15171a"><title>0 contributions on 2026-04-24</title></rect><rect x="598" y="190" width="14" height="14" rx="2" fill="#15171a"><title>0 contributions on 2026-04-25</title></rect><rect x="616" y="82" width="14" height="14" rx="2" fill="#15171a"><title>0 contributions on 2026-04-26</title></rect><rect x="616" y="100" width="14" height="14" rx="2" fill="#15171a"><title>0 contributions on 2026-04-27</title></rect><rect x="616" y="118" width="14" height="14" rx="2" fill="#15171a"><title>0 contributions on 2026-04-28</title></rect><rect x="616" y="136" width="14" height="14" rx="2" fill="#15171a"><title>0 contributions on 2026-04-29</title></rect><rect x="616" y="154" width="14" height="14" rx="2" fill="#15171a"><title>0 contributions on 2026-04-30</title></rect><rect x="616" y="172" width="14" height="14" rx="2" fill="#15171a"><title>0 contributions on 2026-05-01</title></rect><rect x="616" y="190" width="14" height="14" rx="2" fill="#15171a"><title>0 contributions on 2026-05-02</title></rect><rect x="634" y="82" width="14" height="14" rx="2" fill="#15171a"><title>0 contributions on 2026-05-03</title></rect><rect x="634" y="100" width="14" height="14" rx="2" fill="#15171a"><title>0 contributions on 2026-05-04</title></rect><rect x="634" y="118" width="14" height="14" rx="2" fill="#15171a"><title>0 contributions on 2026-05-05</title></rect><rect x="634" y="136" width="14" height="14" rx="2" fill="#15171a"><title>0 contributions on 2026-05-06</title></rect><rect x="634" y="154" width="14" height="14" rx="2" fill="#15171a"><title>0 contributions on 2026-05-07</title></rect><rect x="634" y="172" width="14" height="14" rx="2" fill="#15171a"><title>0 contributions on 2026-05-08</title></rect><rect x="634" y="190" width="14" height="14" rx="2" fill="#15171a"><title>0 contributions on 2026-05-09</title></rect><rect x="652" y="82" width="14" height="14" rx="2" fill="#15171a"><title>0 contributions on 2026-05-10</title></rect><rect x="652" y="100" width="14" height="14" rx="2" fill="#15171a"><title>0 contributions on 2026-05-11</title></rect><rect x="652" y="118" width="14" height="14" rx="2" fill="#15171a"><title>0 contributions on 2026-05-12</title></rect><rect x="652" y="136" width="14" height="14" rx="2" fill="#15171a"><title>0 contributions on 2026-05-13</title></rect><rect x="652" y="154" width="14" height="14" rx="2" fill="#15171a"><title>0 contributions on 2026-05-14</title></rect><rect x="652" y="172" width="14" height="14" rx="2" fill="#15171a"><title>0 contributions on 2026-05-15</title></rect><rect x="652" y="190" width="14" height="14" rx="2" fill="#15171a"><title>0 contributions on 2026-05-16</title></rect><rect x="670" y="82" width="14" height="14" rx="2" fill="#15171a"><title>0 contributions on 2026-05-17</title></rect><rect x="670" y="100" width="14" height="14" rx="2" fill="#15171a"><title>0 contributions on 2026-05-18</title></rect><rect x="670" y="118" width="14" height="14" rx="2" fill="#15171a"><title>0 contributions on 2026-05-19</title></rect><rect x="670" y="136" width="14" height="14" rx="2" fill="#15171a"><title>0 contributions on 2026-05-20</title></rect><rect x="670" y="154" width="14" height="14" rx="2" fill="#15171a"><title>0 contributions on 2026-05-21</title></rect><rect x="670" y="172" width="14" height="14" rx="2" fill="#15171a"><title>0 contributions on 2026-05-22</title></rect><rect x="670" y="190" width="14" height="14" rx="2" fill="#15171a"><title>0 contributions on 2026-05-23</title></rect><rect x="688" y="82" width="14" height="14" rx="2" fill="#15171a"><title>0 contributions on 2026-05-24</title></rect><rect x="688" y="100" width="14" height="14" rx="2" fill="#15171a"><title>0 contributions on 2026-05-25</title></rect><rect x="688" y="118" width="14" height="14" rx="2" fill="#15171a"><title>0 contributions on 2026-05-26</title></rect><rect x="688" y="136" width="14" height="14" rx="2" fill="#15171a"><title>0 contributions on 2026-05-27</title></rect><rect x="688" y="154" width="14" height="14" rx="2" fill="#15171a"><title>0 contributions on 2026-05-28</title></rect><rect x="688" y="172" width="14" height="14" rx="2" fill="#15171a"><title>0 contributions on 2026-05-29</title></rect><rect x="688" y="190" width="14" height="14" rx="2" fill="#15171a"><title>0 contributions on 2026-05-30</title></rect><rect x="706" y="82" width="14" height="14" rx="2" fill="#15171a"><title>0 contributions on 2026-05-31</title></rect><rect x="706" y="100" width="14" height="14" rx="2" fill="#15171a"><title>0 contributions on 2026-06-01</title></rect><rect x="706" y="118" width="14" height="14" rx="2" fill="#15171a"><title>0 contributions on 2026-06-02</title></rect><rect x="706" y="136" width="14" height="14" rx="2" fill="#3b000b"><title>1 contributions on 2026-06-03</title></rect><rect x="706" y="154" width="14" height="14" rx="2" fill="#15171a"><title>0 contributions on 2026-06-04</title></rect><rect x="706" y="172" width="14" height="14" rx="2" fill="#3b000b"><title>1 contributions on 2026-06-05</title></rect><rect x="706" y="190" width="14" height="14" rx="2" fill="#15171a"><title>0 contributions on 2026-06-06</title></rect><rect x="724" y="82" width="14" height="14" rx="2" fill="#15171a"><title>0 contributions on 2026-06-07</title></rect><rect x="724" y="100" width="14" height="14" rx="2" fill="#15171a"><title>0 contributions on 2026-06-08</title></rect><rect x="724" y="118" width="14" height="14" rx="2" fill="#15171a"><title>0 contributions on 2026-06-09</title></rect><rect x="724" y="136" width="14" height="14" rx="2" fill="#15171a"><title>0 contributions on 2026-06-10</title></rect><rect x="724" y="154" width="14" height="14" rx="2" fill="#15171a"><title>0 contributions on 2026-06-11</title></rect><rect x="724" y="172" width="14" height="14" rx="2" fill="#15171a"><title>0 contributions on 2026-06-12</title></rect><rect x="724" y="190" width="14" height="14" rx="2" fill="#15171a"><title>0 contributions on 2026-06-13</title></rect><rect x="742" y="82" width="14" height="14" rx="2" fill="#720016"><title>2 contributions on 2026-06-14</title></rect><rect x="742" y="100" width="14" height="14" rx="2" fill="#15171a"><title>0 contributions on 2026-06-15</title></rect><rect x="742" y="118" width="14" height="14" rx="2" fill="#15171a"><title>0 contributions on 2026-06-16</title></rect><rect x="742" y="136" width="14" height="14" rx="2" fill="#15171a"><title>0 contributions on 2026-06-17</title></rect><rect x="742" y="154" width="14" height="14" rx="2" fill="#15171a"><title>0 contributions on 2026-06-18</title></rect><rect x="742" y="172" width="14" height="14" rx="2" fill="#15171a"><title>0 contributions on 2026-06-19</title></rect><rect x="742" y="190" width="14" height="14" rx="2" fill="#15171a"><title>0 contributions on 2026-06-20</title></rect><rect x="760" y="82" width="14" height="14" rx="2" fill="#15171a"><title>0 contributions on 2026-06-21</title></rect><rect x="760" y="100" width="14" height="14" rx="2" fill="#15171a"><title>0 contributions on 2026-06-22</title></rect><rect x="760" y="118" width="14" height="14" rx="2" fill="#15171a"><title>0 contributions on 2026-06-23</title></rect><rect x="760" y="136" width="14" height="14" rx="2" fill="#15171a"><title>0 contributions on 2026-06-24</title></rect><rect x="760" y="154" width="14" height="14" rx="2" fill="#15171a"><title>0 contributions on 2026-06-25</title></rect><rect x="760" y="172" width="14" height="14" rx="2" fill="#15171a"><title>0 contributions on 2026-06-26</title></rect><rect x="760" y="190" width="14" height="14" rx="2" fill="#15171a"><title>0 contributions on 2026-06-27</title></rect><rect x="778" y="82" width="14" height="14" rx="2" fill="#15171a"><title>0 contributions on 2026-06-28</title></rect><rect x="778" y="100" width="14" height="14" rx="2" fill="#15171a"><title>0 contributions on 2026-06-29</title></rect><rect x="778" y="118" width="14" height="14" rx="2" fill="#15171a"><title>0 contributions on 2026-06-30</title></rect><rect x="778" y="136" width="14" height="14" rx="2" fill="#15171a"><title>0 contributions on 2026-07-01</title></rect><rect x="778" y="154" width="14" height="14" rx="2" fill="#15171a"><title>0 contributions on 2026-07-02</title></rect><rect x="778" y="172" width="14" height="14" rx="2" fill="#15171a"><title>0 contributions on 2026-07-03</title></rect><rect x="778" y="190" width="14" height="14" rx="2" fill="#15171a"><title>0 contributions on 2026-07-04</title></rect><rect x="796" y="82" width="14" height="14" rx="2" fill="#15171a"><title>0 contributions on 2026-07-05</title></rect><rect x="796" y="100" width="14" height="14" rx="2" fill="#15171a"><title>0 contributions on 2026-07-06</title></rect><rect x="796" y="118" width="14" height="14" rx="2" fill="#15171a"><title>0 contributions on 2026-07-07</title></rect><rect x="796" y="136" width="14" height="14" rx="2" fill="#15171a"><title>0 contributions on 2026-07-08</title></rect><rect x="796" y="154" width="14" height="14" rx="2" fill="#15171a"><title>0 contributions on 2026-07-09</title></rect><rect x="796" y="172" width="14" height="14" rx="2" fill="#15171a"><title>0 contributions on 2026-07-10</title></rect><rect x="796" y="190" width="14" height="14" rx="2" fill="#15171a"><title>0 contributions on 2026-07-11</title></rect><rect x="814" y="82" width="14" height="14" rx="2" fill="#15171a"><title>0 contributions on 2026-07-12</title></rect><rect x="814" y="100" width="14" height="14" rx="2" fill="#15171a"><title>0 contributions on 2026-07-13</title></rect><rect x="814" y="118" width="14" height="14" rx="2" fill="#15171a"><title>0 contributions on 2026-07-14</title></rect><rect x="814" y="136" width="14" height="14" rx="2" fill="#15171a"><title>0 contributions on 2026-07-15</title></rect><rect x="814" y="154" width="14" height="14" rx="2" fill="#15171a"><title>0 contributions on 2026-07-16</title></rect><rect x="814" y="172" width="14" height="14" rx="2" fill="#3b000b"><title>1 contributions on 2026-07-17</title></rect><rect x="814" y="190" width="14" height="14" rx="2" fill="#15171a"><title>0 contributions on 2026-07-18</title></rect><rect x="832" y="82" width="14" height="14" rx="2" fill="#15171a"><title>0 contributions on 2026-07-19</title></rect><rect x="832" y="100" width="14" height="14" rx="2" fill="#15171a"><title>0 contributions on 2026-07-20</title></rect><rect x="832" y="118" width="14" height="14" rx="2" fill="#15171a"><title>0 contributions on 2026-07-21</title></rect><rect x="832" y="136" width="14" height="14" rx="2" fill="#15171a"><title>0 contributions on 2026-07-22</title></rect><rect x="832" y="154" width="14" height="14" rx="2" fill="#15171a"><title>0 contributions on 2026-07-23</title></rect><rect x="832" y="172" width="14" height="14" rx="2" fill="#15171a"><title>0 contributions on 2026-07-24</title></rect><rect x="832" y="190" width="14" height="14" rx="2" fill="#15171a"><title>0 contributions on 2026-07-25</title></rect><rect x="850" y="82" width="14" height="14" rx="2" fill="#15171a"><title>0 contributions on 2026-07-26</title></rect><rect x="850" y="100" width="14" height="14" rx="2" fill="#15171a"><title>0 contributions on 2026-07-27</title></rect><rect x="850" y="118" width="14" height="14" rx="2" fill="#3b000b"><title>1 contributions on 2026-07-28</title></rect><rect x="850" y="136" width="14" height="14" rx="2" fill="#15171a"><title>0 contributions on 2026-07-29</title></rect><rect x="850" y="154" width="14" height="14" rx="2" fill="#15171a"><title>0 contributions on 2026-07-30</title></rect><rect x="850" y="172" width="14" height="14" rx="2" fill="#15171a"><title>0 contributions on 2026-07-31</title></rect><rect x="850" y="190" width="14" height="14" rx="2" fill="#15171a"><title>0 contributions on 2026-08-01</title></rect><rect x="868" y="82" width="14" height="14" rx="2" fill="#15171a"><title>0 contributions on 2026-08-02</title></rect><rect x="868" y="100" width="14" height="14" rx="2" fill="#15171a"><title>0 contributions on 2026-08-03</title></rect><rect x="868" y="118" width="14" height="14" rx="2" fill="#15171a"><title>0 contributions on 2026-08-04</title></rect><rect x="868" y="136" width="14" height="14" rx="2" fill="#15171a"><title>0 contributions on 2026-08-05</title></rect><rect x="868" y="154" width="14" height="14" rx="2" fill="#15171a"><title>0 contributions on 2026-08-06</title></rect><rect x="868" y="172" width="14" height="14" rx="2" fill="#15171a"><title>0 contributions on 2026-08-07</title></rect><rect x="868" y="190" width="14" height="14" rx="2" fill="#15171a"><title>0 contributions on 2026-08-08</title></rect><rect x="886" y="82" width="14" height="14" rx="2" fill="#15171a"><title>0 contributions on 2026-08-09</title></rect><rect x="886" y="100" width="14" height="14" rx="2" fill="#15171a"><title>0 contributions on 2026-08-10</title></rect><rect x="886" y="118" width="14" height="14" rx="2" fill="#15171a"><title>0 contributions on 2026-08-11</title></rect><rect x="886" y="136" width="14" height="14" rx="2" fill="#15171a"><title>0 contributions on 2026-08-12</title></rect><rect x="886" y="154" width="14" height="14" rx="2" fill="#15171a"><title>0 contributions on 2026-08-13</title></rect><rect x="886" y="172" width="14" height="14" rx="2" fill="#15171a"><title>0 contributions on 2026-08-14</title></rect><rect x="886" y="190" width="14" height="14" rx="2" fill="#3b000b"><title>1 contributions on 2026-08-15</title></rect><rect x="904" y="82" width="14" height="14" rx="2" fill="#15171a"><title>0 contributions on 2026-08-16</title></rect><rect x="904" y="100" width="14" height="14" rx="2" fill="#15171a"><title>0 contributions on 2026-08-17</title></rect><rect x="904" y="118" width="14" height="14" rx="2" fill="#15171a"><title>0 contributions on 2026-08-18</title></rect><rect x="904" y="136" width="14" height="14" rx="2" fill="#15171a"><title>0 contributions on 2026-08-19</title></rect><rect x="904" y="154" width="14" height="14" rx="2" fill="#15171a"><title>0 contributions on 2026-08-20</title></rect><rect x="904" y="172" width="14" height="14" rx="2" fill="#15171a"><title>0 contributions on 2026-08-21</title></rect><rect x="904" y="190" width="14" height="14" rx="2" fill="#ff1744"><title>6 contributions on 2026-08-22</title></rect><rect x="922" y="82" width="14" height="14" rx="2" fill="#15171a"><title>0 contributions on 2026-08-23</title></rect><rect x="922" y="100" width="14" height="14" rx="2" fill="#15171a"><title>0 contributions on 2026-08-24</title></rect><rect x="922" y="118" width="14" height="14" rx="2" fill="#3b000b"><title>1 contributions on 2026-08-25</title></rect><rect x="922" y="136" width="14" height="14" rx="2" fill="#3b000b"><title>1 contributions on 2026-08-26</title></rect><rect x="922" y="154" width="14" height="14" rx="2" fill="#15171a"><title>0 contributions on 2026-08-27</title></rect><rect x="922" y="172" width="14" height="14" rx="2" fill="#15171a"><title>0 contributions on 2026-08-28</title></rect><rect x="922" y="190" width="14" height="14" rx="2" fill="#15171a"><title>0 contributions on 2026-08-29</title></rect><rect x="940" y="82" width="14" height="14" rx="2" fill="#15171a"><title>0 contributions on 2026-08-30</title></rect><rect x="940" y="100" width="14" height="14" rx="2" fill="#15171a"><title>0 contributions on 2026-08-31</title></rect><rect x="940" y="118" width="14" height="14" rx="2" fill="#15171a"><title>0 contributions on 2026-09-01</title></rect><rect x="940" y="136" width="14" height="14" rx="2" fill="#15171a"><title>0 contributions on 2026-09-02</title></rect><rect x="940" y="154" width="14" height="14" rx="2" fill="#15171a"><title>0 contributions on 2026-09-03</title></rect><rect x="940" y="172" width="14" height="14" rx="2" fill="#15171a"><title>0 contributions on 2026-09-04</title></rect><rect x="940" y="190" width="14" height="14" rx="2" fill="#15171a"><title>0 contributions on 2026-09-05</title></rect><rect x="958" y="82" width="14" height="14" rx="2" fill="#15171a"><title>0 contributions on 2026-09-06</title></rect><rect x="958" y="100" width="14" height="14" rx="2" fill="#15171a"><title>0 contributions on 2026-09-07</title></rect><rect x="958" y="118" width="14" height="14" rx="2" fill="#15171a"><title>0 contributions on 2026-09-08</title></rect><rect x="958" y="136" width="14" height="14" rx="2" fill="#15171a"><title>0 contributions on 2026-09-09</title></rect><rect x="958" y="154" width="14" height="14" rx="2" fill="#15171a"><title>0 contributions on 2026-09-10</title></rect><rect x="958" y="172" width="14" height="14" rx="2" fill="#15171a"><title>0 contributions on 2026-09-11</title></rect><rect x="958" y="190" width="14" height="14" rx="2" fill="#15171a"><title>0 contributions on 2026-09-12</title></rect><rect x="976" y="82" width="14" height="14" rx="2" fill="#15171a"><title>0 contributions on 2026-09-13</title></rect><rect x="976" y="100" width="14" height="14" rx="2" fill="#15171a"><title>0 contributions on 2026-09-14</title></rect><rect x="976" y="118" width="14" height="14" rx="2" fill="#15171a"><title>0 contributions on 2026-09-15</title></rect><rect x="976" y="136" width="14" height="14" rx="2" fill="#dc143c"><title>4 contributions on 2026-09-16</title></rect><rect x="976" y="154" width="14" height="14" rx="2" fill="#3b000b"><title>1 contributions on 2026-09-17</title></rect><rect x="976" y="172" width="14" height="14" rx="2" fill="#15171a"><title>0 contributions on 2026-09-18</title></rect><rect x="976" y="190" width="14" height="14" rx="2" fill="#15171a"><title>0 contributions on 2026-09-19</title></rect><rect x="994" y="82" width="14" height="14" rx="2" fill="#15171a"><title>0 contributions on 2026-09-20</title></rect><rect x="994" y="100" width="14" height="14" rx="2" fill="#15171a"><title>0 contributions on 2026-09-21</title></rect><rect x="994" y="118" width="14" height="14" rx="2" fill="#15171a"><title>0 contributions on 2026-09-22</title></rect><rect x="994" y="136" width="14" height="14" rx="2" fill="#15171a"><title>0 contributions on 2026-09-23</title></rect><rect x="994" y="154" width="14" height="14" rx="2" fill="#15171a"><title>0 contributions on 2026-09-24</title></rect><rect x="994" y="172" width="14" height="14" rx="2" fill="#15171a"><title>0 contributions on 2026-09-25</title></rect>
</svg>